<mxfile host="app.diagrams.net" agent="Mozilla/5.0 (Windows NT 10.0; Win64; x64) AppleWebKit/537.36 (KHTML, like Gecko) Chrome/139.0.0.0 Safari/537.36" version="28.1.1">
  <diagram name="第 1 页" id="t6RGEwgObpinLlAcVLbR">
    <mxGraphModel dx="1213" dy="631" grid="1" gridSize="10" guides="1" tooltips="1" connect="1" arrows="1" fold="1" page="1" pageScale="1" pageWidth="827" pageHeight="1169" math="0" shadow="0">
      <root>
        <mxCell id="0" />
        <mxCell id="1" parent="0" />
        <mxCell id="j3T3pWNmb4vRgjqLclqb-4" value="" style="group" parent="1" vertex="1" connectable="0">
          <mxGeometry x="264" y="80" width="60" height="420" as="geometry" />
        </mxCell>
        <mxCell id="j3T3pWNmb4vRgjqLclqb-1" value="" style="rounded=1;whiteSpace=wrap;html=1;fillColor=#DAE8FC;strokeColor=#6c8ebf;" parent="j3T3pWNmb4vRgjqLclqb-4" vertex="1">
          <mxGeometry y="60" width="60" height="360" as="geometry" />
        </mxCell>
        <mxCell id="j3T3pWNmb4vRgjqLclqb-2" value="&lt;b&gt;Client&lt;/b&gt;" style="whiteSpace=wrap;html=1;rounded=1;fontSize=18;strokeColor=none;fillColor=none;" parent="j3T3pWNmb4vRgjqLclqb-4" vertex="1">
          <mxGeometry width="60" height="60" as="geometry" />
        </mxCell>
        <mxCell id="j3T3pWNmb4vRgjqLclqb-5" value="" style="group" parent="1" vertex="1" connectable="0">
          <mxGeometry x="504" y="80" width="60" height="420" as="geometry" />
        </mxCell>
        <mxCell id="j3T3pWNmb4vRgjqLclqb-6" value="" style="rounded=1;whiteSpace=wrap;html=1;fillColor=#FF66FF;strokeColor=#ae4132;" parent="j3T3pWNmb4vRgjqLclqb-5" vertex="1">
          <mxGeometry y="60" width="60" height="360" as="geometry" />
        </mxCell>
        <mxCell id="j3T3pWNmb4vRgjqLclqb-7" value="&lt;b&gt;Server&lt;/b&gt;" style="whiteSpace=wrap;html=1;rounded=1;fontSize=18;strokeColor=none;fillColor=none;" parent="j3T3pWNmb4vRgjqLclqb-5" vertex="1">
          <mxGeometry width="60" height="60" as="geometry" />
        </mxCell>
        <mxCell id="j3T3pWNmb4vRgjqLclqb-9" value="" style="edgeStyle=none;orthogonalLoop=1;jettySize=auto;html=1;rounded=0;strokeWidth=2;fillColor=#0050ef;strokeColor=#001DBC;entryX=0;entryY=0.25;entryDx=0;entryDy=0;" parent="1" target="j3T3pWNmb4vRgjqLclqb-6" edge="1">
          <mxGeometry width="80" relative="1" as="geometry">
            <mxPoint x="324" y="180" as="sourcePoint" />
            <mxPoint x="504" y="220" as="targetPoint" />
            <Array as="points" />
          </mxGeometry>
        </mxCell>
        <mxCell id="j3T3pWNmb4vRgjqLclqb-10" value="&lt;b&gt;SYN(Seq=x)&lt;/b&gt;" style="edgeLabel;html=1;align=center;verticalAlign=middle;resizable=0;points=[];" parent="j3T3pWNmb4vRgjqLclqb-9" vertex="1" connectable="0">
          <mxGeometry x="-0.3297" y="3" relative="1" as="geometry">
            <mxPoint x="-1" as="offset" />
          </mxGeometry>
        </mxCell>
        <mxCell id="j3T3pWNmb4vRgjqLclqb-11" value="" style="edgeStyle=none;orthogonalLoop=1;jettySize=auto;html=1;rounded=0;entryX=1;entryY=0.5;entryDx=0;entryDy=0;strokeColor=#FF33FF;strokeWidth=2;exitX=-0.006;exitY=0.337;exitDx=0;exitDy=0;exitPerimeter=0;" parent="1" source="j3T3pWNmb4vRgjqLclqb-6" target="j3T3pWNmb4vRgjqLclqb-1" edge="1">
          <mxGeometry width="80" relative="1" as="geometry">
            <mxPoint x="502" y="270" as="sourcePoint" />
            <mxPoint x="634" y="280" as="targetPoint" />
            <Array as="points" />
          </mxGeometry>
        </mxCell>
        <mxCell id="j3T3pWNmb4vRgjqLclqb-13" value="&lt;b&gt;SYN-ACK(Seq=y, ack=x+1)&lt;/b&gt;" style="edgeLabel;html=1;align=center;verticalAlign=middle;resizable=0;points=[];" parent="j3T3pWNmb4vRgjqLclqb-11" vertex="1" connectable="0">
          <mxGeometry x="0.1008" y="1" relative="1" as="geometry">
            <mxPoint as="offset" />
          </mxGeometry>
        </mxCell>
        <mxCell id="j3T3pWNmb4vRgjqLclqb-12" value="" style="edgeStyle=none;orthogonalLoop=1;jettySize=auto;html=1;rounded=0;entryX=0;entryY=0.75;entryDx=0;entryDy=0;fillColor=#0050ef;strokeColor=#001DBC;strokeWidth=2;" parent="1" target="j3T3pWNmb4vRgjqLclqb-6" edge="1">
          <mxGeometry width="80" relative="1" as="geometry">
            <mxPoint x="324" y="340" as="sourcePoint" />
            <mxPoint x="634" y="280" as="targetPoint" />
            <Array as="points" />
          </mxGeometry>
        </mxCell>
        <mxCell id="j3T3pWNmb4vRgjqLclqb-14" value="&lt;b&gt;ACK(Seq=x+1, ack=y+1)&lt;/b&gt;" style="edgeLabel;html=1;align=center;verticalAlign=middle;resizable=0;points=[];" parent="j3T3pWNmb4vRgjqLclqb-12" vertex="1" connectable="0">
          <mxGeometry x="-0.1548" y="-3" relative="1" as="geometry">
            <mxPoint as="offset" />
          </mxGeometry>
        </mxCell>
        <mxCell id="j3T3pWNmb4vRgjqLclqb-15" value="TCP Three-Way-Handshake" style="text;html=1;align=center;verticalAlign=middle;resizable=0;points=[];autosize=1;strokeColor=none;fillColor=none;fontSize=21;fontStyle=1" parent="1" vertex="1">
          <mxGeometry x="268" y="40" width="290" height="40" as="geometry" />
        </mxCell>
        <mxCell id="j3T3pWNmb4vRgjqLclqb-19" value="" style="group" parent="1" vertex="1" connectable="0">
          <mxGeometry x="504" y="640" width="60" height="420" as="geometry" />
        </mxCell>
        <mxCell id="j3T3pWNmb4vRgjqLclqb-20" value="" style="rounded=1;whiteSpace=wrap;html=1;fillColor=#FF66FF;strokeColor=#ae4132;" parent="j3T3pWNmb4vRgjqLclqb-19" vertex="1">
          <mxGeometry y="60" width="60" height="360" as="geometry" />
        </mxCell>
        <mxCell id="j3T3pWNmb4vRgjqLclqb-21" value="&lt;b&gt;Server&lt;/b&gt;" style="whiteSpace=wrap;html=1;rounded=1;fontSize=18;strokeColor=none;fillColor=none;" parent="j3T3pWNmb4vRgjqLclqb-19" vertex="1">
          <mxGeometry width="60" height="60" as="geometry" />
        </mxCell>
        <mxCell id="j3T3pWNmb4vRgjqLclqb-22" value="" style="edgeStyle=none;orthogonalLoop=1;jettySize=auto;html=1;rounded=0;strokeWidth=2;fillColor=#0050ef;strokeColor=#001DBC;entryX=0;entryY=0.25;entryDx=0;entryDy=0;" parent="1" target="j3T3pWNmb4vRgjqLclqb-20" edge="1">
          <mxGeometry width="80" relative="1" as="geometry">
            <mxPoint x="324" y="740" as="sourcePoint" />
            <mxPoint x="504" y="780" as="targetPoint" />
            <Array as="points" />
          </mxGeometry>
        </mxCell>
        <mxCell id="j3T3pWNmb4vRgjqLclqb-23" value="&lt;b&gt;FIN(Seq=u)&lt;/b&gt;" style="edgeLabel;html=1;align=center;verticalAlign=middle;resizable=0;points=[];" parent="j3T3pWNmb4vRgjqLclqb-22" vertex="1" connectable="0">
          <mxGeometry x="-0.3297" y="3" relative="1" as="geometry">
            <mxPoint x="-1" as="offset" />
          </mxGeometry>
        </mxCell>
        <mxCell id="j3T3pWNmb4vRgjqLclqb-24" value="" style="edgeStyle=none;orthogonalLoop=1;jettySize=auto;html=1;rounded=0;strokeColor=#FF33FF;strokeWidth=2;exitX=-0.006;exitY=0.337;exitDx=0;exitDy=0;exitPerimeter=0;entryX=0.994;entryY=0.409;entryDx=0;entryDy=0;entryPerimeter=0;" parent="1" source="j3T3pWNmb4vRgjqLclqb-20" target="j3T3pWNmb4vRgjqLclqb-17" edge="1">
          <mxGeometry width="80" relative="1" as="geometry">
            <mxPoint x="502" y="830" as="sourcePoint" />
            <mxPoint x="330" y="840" as="targetPoint" />
            <Array as="points" />
          </mxGeometry>
        </mxCell>
        <mxCell id="j3T3pWNmb4vRgjqLclqb-25" value="&lt;b&gt;ACK(Seq=v, ack=u+1)&lt;/b&gt;" style="edgeLabel;html=1;align=center;verticalAlign=middle;resizable=0;points=[];" parent="j3T3pWNmb4vRgjqLclqb-24" vertex="1" connectable="0">
          <mxGeometry x="0.1008" y="1" relative="1" as="geometry">
            <mxPoint as="offset" />
          </mxGeometry>
        </mxCell>
        <mxCell id="j3T3pWNmb4vRgjqLclqb-26" value="" style="edgeStyle=none;orthogonalLoop=1;jettySize=auto;html=1;rounded=0;entryX=-0.017;entryY=0.607;entryDx=0;entryDy=0;fillColor=#0050ef;strokeColor=#001DBC;strokeWidth=2;exitX=1;exitY=0.5;exitDx=0;exitDy=0;entryPerimeter=0;" parent="1" source="j3T3pWNmb4vRgjqLclqb-17" target="j3T3pWNmb4vRgjqLclqb-20" edge="1">
          <mxGeometry width="80" relative="1" as="geometry">
            <mxPoint x="324" y="900" as="sourcePoint" />
            <mxPoint x="634" y="840" as="targetPoint" />
            <Array as="points" />
          </mxGeometry>
        </mxCell>
        <mxCell id="j3T3pWNmb4vRgjqLclqb-27" value="&lt;b&gt;FIN(Seq=v)&lt;/b&gt;" style="edgeLabel;html=1;align=center;verticalAlign=middle;resizable=0;points=[];" parent="j3T3pWNmb4vRgjqLclqb-26" vertex="1" connectable="0">
          <mxGeometry x="-0.1548" y="-3" relative="1" as="geometry">
            <mxPoint as="offset" />
          </mxGeometry>
        </mxCell>
        <mxCell id="j3T3pWNmb4vRgjqLclqb-28" value="TCP Four-Way-Termination" style="text;html=1;align=center;verticalAlign=middle;resizable=0;points=[];autosize=1;strokeColor=none;fillColor=none;fontSize=21;fontStyle=1" parent="1" vertex="1">
          <mxGeometry x="273" y="600" width="280" height="40" as="geometry" />
        </mxCell>
        <mxCell id="j3T3pWNmb4vRgjqLclqb-29" value="" style="edgeStyle=none;orthogonalLoop=1;jettySize=auto;html=1;rounded=0;entryX=1.017;entryY=0.831;entryDx=0;entryDy=0;entryPerimeter=0;fontColor=#FF33FF;strokeWidth=2;strokeColor=#FF33FF;" parent="1" target="j3T3pWNmb4vRgjqLclqb-17" edge="1">
          <mxGeometry width="80" relative="1" as="geometry">
            <mxPoint x="503" y="970" as="sourcePoint" />
            <mxPoint x="490" y="850" as="targetPoint" />
            <Array as="points" />
          </mxGeometry>
        </mxCell>
        <mxCell id="j3T3pWNmb4vRgjqLclqb-32" value="&lt;b&gt;ACK(Seq=u+1, ack=v+1)&lt;/b&gt;" style="edgeLabel;html=1;align=center;verticalAlign=middle;resizable=0;points=[];" parent="j3T3pWNmb4vRgjqLclqb-29" vertex="1" connectable="0">
          <mxGeometry x="0.0964" y="-3" relative="1" as="geometry">
            <mxPoint as="offset" />
          </mxGeometry>
        </mxCell>
        <mxCell id="j3T3pWNmb4vRgjqLclqb-31" value="" style="group" parent="1" vertex="1" connectable="0">
          <mxGeometry x="264" y="640" width="60" height="420" as="geometry" />
        </mxCell>
        <mxCell id="j3T3pWNmb4vRgjqLclqb-17" value="" style="rounded=1;whiteSpace=wrap;html=1;fillColor=#DAE8FC;strokeColor=#6c8ebf;" parent="j3T3pWNmb4vRgjqLclqb-31" vertex="1">
          <mxGeometry y="60" width="60" height="360" as="geometry" />
        </mxCell>
        <mxCell id="j3T3pWNmb4vRgjqLclqb-18" value="&lt;b&gt;Client&lt;/b&gt;" style="whiteSpace=wrap;html=1;rounded=1;fontSize=18;strokeColor=none;fillColor=none;" parent="j3T3pWNmb4vRgjqLclqb-31" vertex="1">
          <mxGeometry width="60" height="60" as="geometry" />
        </mxCell>
      </root>
    </mxGraphModel>
  </diagram>
</mxfile>
